<svg width="26" height="25" viewBox="0 0 26 25" fill="none" xmlns="http://www.w3.org/2000/svg">
<path d="M15.4379 19.8126L14.7718 17.2315C14.6885 16.9262 14.3832 16.732 14.078 16.8152C13.7727 16.8985 13.5784 17.2038 13.6617 17.5091L14.3277 20.1179C13.6339 20.5064 13.1621 21.228 13.1621 22.0606C13.1621 23.3095 14.1612 24.3086 15.4101 24.3086C16.659 24.3086 17.6581 23.3095 17.6581 22.0606C17.6859 20.8394 16.6868 19.8403 15.4379 19.8126Z" fill="#26C296"/>
<path d="M7.9464 13.4556L4.42175 14.6768C4.00545 14.1772 3.39488 13.8442 2.6733 13.8442C1.42441 13.8442 0.425293 14.8433 0.425293 16.0922C0.425293 17.3411 1.42441 18.3402 2.6733 18.3402C3.92219 18.3402 4.92131 17.3411 4.92131 16.0922C4.92131 15.9812 4.89355 15.8424 4.89355 15.7314L8.30719 14.538C8.61248 14.427 8.75124 14.1217 8.66798 13.8164C8.58473 13.5112 8.25169 13.3446 7.9464 13.4556Z" fill="#26C296"/>
<path d="M23.1539 11.0417C22.0992 11.0417 21.2389 11.7633 20.9891 12.7069H18.297C17.9918 12.7069 17.7142 12.9567 17.7142 13.262C17.7142 13.5673 17.964 13.8171 18.297 13.8171H20.9614C21.2111 14.7884 22.0992 15.4823 23.1261 15.4823C24.375 15.4823 25.3741 14.4831 25.3741 13.2342C25.3741 11.9854 24.4027 11.0417 23.1539 11.0417Z" fill="#26C296"/>
<path d="M13.1642 16.2039C15.2488 16.2039 16.9386 14.5265 16.9386 12.4573C16.9386 10.388 15.2488 8.71057 13.1642 8.71057C11.0796 8.71057 9.38977 10.388 9.38977 12.4573C9.38977 14.5265 11.0796 16.2039 13.1642 16.2039Z" fill="#26C296"/>
<path d="M9.75034 8.26725L8.5292 7.3514C8.64021 7.07386 8.69572 6.79633 8.69572 6.49105C8.69572 5.24216 7.69661 4.24304 6.44771 4.24304C5.19882 4.24304 4.19971 5.24216 4.19971 6.49105C4.19971 7.73994 5.19882 8.73906 6.44771 8.73906C6.97502 8.73906 7.44683 8.54478 7.83537 8.26725L9.05651 9.21086C9.16752 9.29412 9.27854 9.32187 9.38955 9.32187C9.55607 9.32187 9.72259 9.23861 9.8336 9.09985C10.0556 8.82231 10.0001 8.46152 9.75034 8.26725Z" fill="#26C296"/>
<path d="M15.5256 8.48872C15.6088 8.54422 15.7198 8.57198 15.8309 8.57198C16.0251 8.57198 16.2194 8.46097 16.3304 8.29445L18.1066 5.35261C18.3564 5.43587 18.6062 5.49138 18.856 5.49138C20.1048 5.49138 21.104 4.49226 21.104 3.24337C21.104 1.99448 20.1048 0.995361 18.856 0.995361C17.6071 0.995361 16.6079 1.99448 16.6079 3.24337C16.6079 3.79843 16.83 4.29799 17.163 4.71429L15.3591 7.71163C15.1648 7.96141 15.248 8.3222 15.5256 8.48872Z" fill="#26C296"/>
</svg>
