<svg width="15" height="15" viewBox="0 0 15 15" fill="none" xmlns="http://www.w3.org/2000/svg">
<g opacity="0.6">
<path d="M14.4485 13.1601H1.1072C0.998915 13.1601 0.890625 13.2684 0.890625 13.3767C0.890625 14.0048 1.41042 14.5245 2.0385 14.5245H13.5389C14.167 14.5245 14.6868 14.0048 14.6868 13.3767C14.6651 13.2684 14.5785 13.1601 14.4485 13.1601Z" fill="#1616B3"/>
<path d="M13.6039 9.67288C13.1274 9.32635 12.4344 9.28303 11.8929 9.54293C11.3515 9.80283 10.7017 9.80283 10.1386 9.54293C9.68381 9.32635 9.09904 9.32635 8.64422 9.54293C8.10277 9.80283 7.45303 9.80283 6.88993 9.54293C6.43511 9.32635 5.85034 9.32635 5.39552 9.54293C4.85407 9.80283 4.20433 9.80283 3.64123 9.54293C3.12144 9.30469 2.4717 9.32635 1.99522 9.62956C1.97356 9.62956 1.9519 9.65122 1.9519 9.67288V12.7267H13.6039V9.67288Z" fill="#1616B3"/>
<path d="M3.85776 9.1534C4.29092 9.34833 4.81071 9.34833 5.22221 9.1534C5.80697 8.87185 6.52169 8.87185 7.08479 9.1534C7.51795 9.34833 8.03775 9.34833 8.44925 9.1534C9.03401 8.87185 9.74873 8.87185 10.3335 9.1534C10.7667 9.34833 11.2864 9.34833 11.6979 9.1534C12.2827 8.87185 13.0191 8.87185 13.5822 9.17506V8.89351C13.5822 7.9189 12.7808 7.11755 11.8062 7.11755H3.74947C2.77486 7.11755 1.97351 7.9189 1.97351 8.89351V9.17506C2.53662 8.89351 3.25133 8.87185 3.85776 9.1534Z" fill="#1616B3"/>
<path d="M11.1565 5.16829C11.1565 4.73513 10.81 4.36694 10.3552 4.36694C9.92202 4.36694 9.55383 4.71347 9.55383 5.16829V6.68435H11.1565V5.16829Z" fill="#1616B3"/>
<path d="M6.00186 5.16829C6.00186 4.73513 5.63368 4.36694 5.20052 4.36694C4.76736 4.36694 4.39917 4.71347 4.39917 5.16829V6.68435H6.00186V5.16829Z" fill="#1616B3"/>
<path d="M8.57925 4.23701C8.57925 3.80385 8.21107 3.43567 7.77791 3.43567C7.34475 3.43567 6.97656 3.80385 6.97656 4.23701V6.68437H8.57925V4.23701Z" fill="#1616B3"/>
<path d="M10.3551 3.80384C10.7883 3.80384 11.1348 3.45731 11.1348 3.02415C11.1348 2.67763 10.68 1.9196 10.5284 1.70302C10.4851 1.63804 10.4201 1.59473 10.3551 1.59473C10.2902 1.59473 10.2035 1.63804 10.1819 1.70302C10.0303 1.9196 9.57544 2.67763 9.57544 3.02415C9.57544 3.45731 9.92197 3.80384 10.3551 3.80384Z" fill="#1616B3"/>
<path d="M5.20059 3.80384C5.63375 3.80384 5.98027 3.45731 5.98027 3.02415C5.98027 2.67763 5.52546 1.9196 5.37385 1.70302C5.33053 1.63804 5.26556 1.59473 5.20059 1.59473C5.13561 1.59473 5.04898 1.63804 5.02732 1.70302C4.87572 1.9196 4.4209 2.67763 4.4209 3.02415C4.4209 3.45731 4.76743 3.80384 5.20059 3.80384Z" fill="#1616B3"/>
<path d="M7.77786 2.87257C8.21102 2.87257 8.55754 2.52604 8.55754 2.09288C8.55754 1.74635 8.10273 1.00998 7.95112 0.771742C7.92946 0.706768 7.84283 0.663452 7.77786 0.663452C7.71288 0.663452 7.62625 0.706768 7.60459 0.771742C7.45299 0.988322 6.99817 1.74635 6.99817 2.09288C6.99817 2.50438 7.3447 2.87257 7.77786 2.87257Z" fill="#1616B3"/>
</g>
</svg>
