<svg width="29" height="23" viewBox="0 0 29 23" fill="none" xmlns="http://www.w3.org/2000/svg">
<path d="M8.86475 11.1569C8.62787 10.7127 8.15411 10.4463 7.65074 10.4463H6.08141C6.46634 6.15281 10.0491 2.77728 14.4314 2.77728C15.8527 2.77728 17.2444 3.1326 18.488 3.84324C19.1394 4.22817 19.9685 3.99129 20.3534 3.31026C20.7383 2.65884 20.5014 1.82976 19.8204 1.44484C18.1919 0.526928 16.3264 0.0235596 14.4314 0.0235596C8.53904 0.0235596 3.74223 4.64271 3.38691 10.4166H1.72875C1.22538 10.4166 0.751626 10.6831 0.514746 11.1273C0.277867 11.5714 0.307477 12.1044 0.573966 12.5189L3.53496 17.0789C3.80145 17.4638 4.21599 17.7007 4.68975 17.7007C5.16351 17.7007 5.57804 17.4638 5.84453 17.0789L8.80553 12.5189C9.10163 12.134 9.10163 11.5714 8.86475 11.1569Z" fill="#26C296"/>
<path d="M28.293 9.70629L25.332 5.14636C24.8286 4.37651 23.5554 4.37651 23.052 5.14636L20.0614 9.70629C19.7949 10.1208 19.7653 10.6538 20.0022 11.098C20.2391 11.5421 20.7128 11.8086 21.2162 11.8086H22.7855C22.4006 16.102 18.8178 19.4776 14.4355 19.4776C13.0439 19.4776 11.6226 19.1223 10.379 18.4116C9.72756 18.0563 8.89849 18.2932 8.51356 18.9446C8.15824 19.596 8.39512 20.4251 9.04654 20.81C10.7047 21.7279 12.5405 22.2017 14.4355 22.2017C20.3279 22.2017 25.1247 17.5825 25.5097 11.8086H27.1382C27.6416 11.8086 28.1153 11.5421 28.3522 11.098C28.5595 10.6538 28.5595 10.1208 28.293 9.70629Z" fill="#26C296"/>
</svg>
