<svg width="13" height="12" viewBox="0 0 13 12" fill="none" xmlns="http://www.w3.org/2000/svg">
<path d="M8.19116 7.12732V7.23153C8.19116 8.01314 7.55285 8.65145 6.77124 8.65145C5.98963 8.65145 5.35131 8.01314 5.35131 7.23153V7.12732L0.844033 6.25452C0.752845 6.24149 0.661657 6.21544 0.583496 6.16333V10.0974C0.583496 11.0614 1.36511 11.843 2.32909 11.843H11.2264C12.1904 11.843 12.972 11.0614 12.972 10.0974V6.16333C12.8938 6.20241 12.8027 6.22846 12.7115 6.25452L8.19116 7.12732Z" fill="#1616B3"/>
<path d="M11.2394 2.6333H9.65016V1.98196C9.65016 0.978893 8.82947 0.158203 7.82641 0.158203H5.71606C4.713 0.158203 3.89231 0.978893 3.89231 1.98196V2.6333H2.30304C1.35208 2.6333 0.583496 3.40188 0.583496 4.35284V5.08234C0.583496 5.31682 0.752845 5.51223 0.974301 5.56433L5.35131 6.41108C5.36434 5.6425 5.98963 5.03023 6.77124 5.03023C7.53982 5.03023 8.17813 5.6425 8.19116 6.41108L12.5551 5.56433C12.7896 5.51223 12.959 5.31682 12.959 5.08234V4.33981C12.959 3.40188 12.1904 2.6333 11.2394 2.6333ZM5.23407 1.96893C5.23407 1.7084 5.45553 1.49997 5.70304 1.49997H7.82641C8.08695 1.49997 8.29537 1.72142 8.29537 1.96893V2.62027H5.23407V1.96893Z" fill="#1616B3"/>
<path d="M7.488 7.23124V6.44963C7.488 6.05882 7.16233 5.73315 6.77153 5.73315C6.38072 5.73315 6.05505 6.05882 6.05505 6.44963V7.23124C6.05505 7.62204 6.38072 7.94771 6.77153 7.94771C7.16233 7.94771 7.488 7.62204 7.488 7.23124Z" fill="#1616B3"/>
</svg>
