<svg width="67" height="63" viewBox="0 0 67 63" fill="none" xmlns="http://www.w3.org/2000/svg">
<path d="M2.07193 62.3119C2.79918 62.3119 3.38874 61.7223 3.38874 60.9951C3.38874 60.2678 2.79918 59.6783 2.07193 59.6783C1.34468 59.6783 0.755127 60.2678 0.755127 60.9951C0.755127 61.7223 1.34468 62.3119 2.07193 62.3119Z" fill="#64CCE3"/>
<path d="M2.07193 50.5299C2.79918 50.5299 3.38874 49.9404 3.38874 49.2131C3.38874 48.4859 2.79918 47.8963 2.07193 47.8963C1.34468 47.8963 0.755127 48.4859 0.755127 49.2131C0.755127 49.9404 1.34468 50.5299 2.07193 50.5299Z" fill="#64CCE3"/>
<path d="M2.07193 38.748C2.79918 38.748 3.38874 38.1584 3.38874 37.4312C3.38874 36.7039 2.79918 36.1144 2.07193 36.1144C1.34468 36.1144 0.755127 36.7039 0.755127 37.4312C0.755127 38.1584 1.34468 38.748 2.07193 38.748Z" fill="#64CCE3"/>
<path d="M2.07193 26.8962C2.79918 26.8962 3.38874 26.3066 3.38874 25.5793C3.38874 24.8521 2.79918 24.2625 2.07193 24.2625C1.34468 24.2625 0.755127 24.8521 0.755127 25.5793C0.755127 26.3066 1.34468 26.8962 2.07193 26.8962Z" fill="#64CCE3"/>
<path d="M2.07193 15.1142C2.79918 15.1142 3.38874 14.5246 3.38874 13.7974C3.38874 13.0701 2.79918 12.4806 2.07193 12.4806C1.34468 12.4806 0.755127 13.0701 0.755127 13.7974C0.755127 14.5246 1.34468 15.1142 2.07193 15.1142Z" fill="#64CCE3"/>
<path d="M2.07169 3.26334C2.79894 3.26334 3.38849 2.67379 3.38849 1.94654C3.38849 1.21928 2.79894 0.62973 2.07169 0.62973C1.34444 0.62973 0.754883 1.21928 0.754883 1.94654C0.754883 2.67379 1.34444 3.26334 2.07169 3.26334Z" fill="#64CCE3"/>
<path d="M65.6238 62.3118C66.351 62.3118 66.9406 61.7223 66.9406 60.995C66.9406 60.2677 66.351 59.6782 65.6238 59.6782C64.8965 59.6782 64.3069 60.2677 64.3069 60.995C64.3069 61.7223 64.8965 62.3118 65.6238 62.3118Z" fill="#64CCE3"/>
<path d="M65.6238 50.5299C66.351 50.5299 66.9406 49.9403 66.9406 49.213C66.9406 48.4858 66.351 47.8962 65.6238 47.8962C64.8965 47.8962 64.3069 48.4858 64.3069 49.213C64.3069 49.9403 64.8965 50.5299 65.6238 50.5299Z" fill="#64CCE3"/>
<path d="M65.6238 38.7479C66.351 38.7479 66.9406 38.1584 66.9406 37.4311C66.9406 36.7039 66.351 36.1143 65.6238 36.1143C64.8965 36.1143 64.3069 36.7039 64.3069 37.4311C64.3069 38.1584 64.8965 38.7479 65.6238 38.7479Z" fill="#64CCE3"/>
<path d="M65.6238 26.8961C66.351 26.8961 66.9406 26.3065 66.9406 25.5793C66.9406 24.852 66.351 24.2625 65.6238 24.2625C64.8965 24.2625 64.3069 24.852 64.3069 25.5793C64.3069 26.3065 64.8965 26.8961 65.6238 26.8961Z" fill="#64CCE3"/>
<path d="M65.6238 15.1141C66.351 15.1141 66.9406 14.5246 66.9406 13.7973C66.9406 13.0701 66.351 12.4805 65.6238 12.4805C64.8965 12.4805 64.3069 13.0701 64.3069 13.7973C64.3069 14.5246 64.8965 15.1141 65.6238 15.1141Z" fill="#64CCE3"/>
<path d="M65.6238 3.26328C66.351 3.26328 66.9406 2.67373 66.9406 1.94647C66.9406 1.21922 66.351 0.629669 65.6238 0.629669C64.8965 0.629669 64.3069 1.21922 64.3069 1.94647C64.3069 2.67373 64.8965 3.26328 65.6238 3.26328Z" fill="#64CCE3"/>
<path d="M40.1892 62.3118C40.9165 62.3118 41.506 61.7223 41.506 60.995C41.506 60.2677 40.9165 59.6782 40.1892 59.6782C39.462 59.6782 38.8724 60.2677 38.8724 60.995C38.8724 61.7223 39.462 62.3118 40.1892 62.3118Z" fill="#64CCE3"/>
<path d="M40.1892 50.5299C40.9165 50.5299 41.506 49.9403 41.506 49.213C41.506 48.4858 40.9165 47.8962 40.1892 47.8962C39.462 47.8962 38.8724 48.4858 38.8724 49.213C38.8724 49.9403 39.462 50.5299 40.1892 50.5299Z" fill="#64CCE3"/>
<path d="M40.1892 38.7479C40.9165 38.7479 41.506 38.1584 41.506 37.4311C41.506 36.7039 40.9165 36.1143 40.1892 36.1143C39.462 36.1143 38.8724 36.7039 38.8724 37.4311C38.8724 38.1584 39.462 38.7479 40.1892 38.7479Z" fill="#64CCE3"/>
<path d="M40.1892 26.8961C40.9165 26.8961 41.506 26.3065 41.506 25.5793C41.506 24.852 40.9165 24.2625 40.1892 24.2625C39.462 24.2625 38.8724 24.852 38.8724 25.5793C38.8724 26.3065 39.462 26.8961 40.1892 26.8961Z" fill="#64CCE3"/>
<path d="M40.1892 15.1141C40.9165 15.1141 41.506 14.5246 41.506 13.7973C41.506 13.0701 40.9165 12.4805 40.1892 12.4805C39.462 12.4805 38.8724 13.0701 38.8724 13.7973C38.8724 14.5246 39.462 15.1141 40.1892 15.1141Z" fill="#64CCE3"/>
<path d="M40.1892 3.26328C40.9165 3.26328 41.506 2.67373 41.506 1.94647C41.506 1.21922 40.9165 0.629669 40.1892 0.629669C39.462 0.629669 38.8724 1.21922 38.8724 1.94647C38.8724 2.67373 39.462 3.26328 40.1892 3.26328Z" fill="#64CCE3"/>
<path d="M27.505 62.3118C28.2323 62.3118 28.8218 61.7223 28.8218 60.995C28.8218 60.2677 28.2323 59.6782 27.505 59.6782C26.7778 59.6782 26.1882 60.2677 26.1882 60.995C26.1882 61.7223 26.7778 62.3118 27.505 62.3118Z" fill="#64CCE3"/>
<path d="M27.505 50.5299C28.2323 50.5299 28.8218 49.9403 28.8218 49.213C28.8218 48.4858 28.2323 47.8962 27.505 47.8962C26.7778 47.8962 26.1882 48.4858 26.1882 49.213C26.1882 49.9403 26.7778 50.5299 27.505 50.5299Z" fill="#64CCE3"/>
<path d="M27.505 38.7479C28.2323 38.7479 28.8218 38.1584 28.8218 37.4311C28.8218 36.7039 28.2323 36.1143 27.505 36.1143C26.7778 36.1143 26.1882 36.7039 26.1882 37.4311C26.1882 38.1584 26.7778 38.7479 27.505 38.7479Z" fill="#64CCE3"/>
<path d="M27.505 26.8961C28.2323 26.8961 28.8218 26.3065 28.8218 25.5793C28.8218 24.852 28.2323 24.2625 27.505 24.2625C26.7778 24.2625 26.1882 24.852 26.1882 25.5793C26.1882 26.3065 26.7778 26.8961 27.505 26.8961Z" fill="#64CCE3"/>
<path d="M27.505 15.1141C28.2323 15.1141 28.8218 14.5246 28.8218 13.7973C28.8218 13.0701 28.2323 12.4805 27.505 12.4805C26.7778 12.4805 26.1882 13.0701 26.1882 13.7973C26.1882 14.5246 26.7778 15.1141 27.505 15.1141Z" fill="#64CCE3"/>
<path d="M27.505 3.26328C28.2323 3.26328 28.8218 2.67373 28.8218 1.94647C28.8218 1.21922 28.2323 0.629669 27.505 0.629669C26.7778 0.629669 26.1882 1.21922 26.1882 1.94647C26.1882 2.67373 26.7778 3.26328 27.505 3.26328Z" fill="#64CCE3"/>
<path d="M52.9419 62.3118C53.6692 62.3118 54.2587 61.7223 54.2587 60.995C54.2587 60.2677 53.6692 59.6782 52.9419 59.6782C52.2147 59.6782 51.6251 60.2677 51.6251 60.995C51.6251 61.7223 52.2147 62.3118 52.9419 62.3118Z" fill="#64CCE3"/>
<path d="M52.9419 50.5299C53.6692 50.5299 54.2587 49.9403 54.2587 49.213C54.2587 48.4858 53.6692 47.8962 52.9419 47.8962C52.2147 47.8962 51.6251 48.4858 51.6251 49.213C51.6251 49.9403 52.2147 50.5299 52.9419 50.5299Z" fill="#64CCE3"/>
<path d="M52.9419 38.7479C53.6692 38.7479 54.2587 38.1583 54.2587 37.4311C54.2587 36.7038 53.6692 36.1143 52.9419 36.1143C52.2147 36.1143 51.6251 36.7038 51.6251 37.4311C51.6251 38.1583 52.2147 38.7479 52.9419 38.7479Z" fill="#64CCE3"/>
<path d="M52.9419 26.8961C53.6692 26.8961 54.2587 26.3065 54.2587 25.5793C54.2587 24.852 53.6692 24.2625 52.9419 24.2625C52.2147 24.2625 51.6251 24.852 51.6251 25.5793C51.6251 26.3065 52.2147 26.8961 52.9419 26.8961Z" fill="#64CCE3"/>
<path d="M52.9419 15.1141C53.6692 15.1141 54.2587 14.5246 54.2587 13.7973C54.2587 13.0701 53.6692 12.4805 52.9419 12.4805C52.2147 12.4805 51.6251 13.0701 51.6251 13.7973C51.6251 14.5246 52.2147 15.1141 52.9419 15.1141Z" fill="#64CCE3"/>
<path d="M52.9427 3.26301C53.6699 3.26301 54.2595 2.67345 54.2595 1.9462C54.2595 1.21895 53.6699 0.629395 52.9427 0.629395C52.2154 0.629395 51.6259 1.21895 51.6259 1.9462C51.6259 2.67345 52.2154 3.26301 52.9427 3.26301Z" fill="#64CCE3"/>
<path d="M14.825 62.3118C15.5522 62.3118 16.1418 61.7223 16.1418 60.995C16.1418 60.2677 15.5522 59.6782 14.825 59.6782C14.0977 59.6782 13.5082 60.2677 13.5082 60.995C13.5082 61.7223 14.0977 62.3118 14.825 62.3118Z" fill="#64CCE3"/>
<path d="M14.825 50.5299C15.5522 50.5299 16.1418 49.9403 16.1418 49.213C16.1418 48.4858 15.5522 47.8962 14.825 47.8962C14.0977 47.8962 13.5082 48.4858 13.5082 49.213C13.5082 49.9403 14.0977 50.5299 14.825 50.5299Z" fill="#64CCE3"/>
<path d="M14.825 38.7479C15.5522 38.7479 16.1418 38.1583 16.1418 37.4311C16.1418 36.7038 15.5522 36.1143 14.825 36.1143C14.0977 36.1143 13.5082 36.7038 13.5082 37.4311C13.5082 38.1583 14.0977 38.7479 14.825 38.7479Z" fill="#64CCE3"/>
<path d="M14.825 26.8961C15.5522 26.8961 16.1418 26.3065 16.1418 25.5793C16.1418 24.852 15.5522 24.2625 14.825 24.2625C14.0977 24.2625 13.5082 24.852 13.5082 25.5793C13.5082 26.3065 14.0977 26.8961 14.825 26.8961Z" fill="#64CCE3"/>
<path d="M14.825 15.1141C15.5522 15.1141 16.1418 14.5246 16.1418 13.7973C16.1418 13.0701 15.5522 12.4805 14.825 12.4805C14.0977 12.4805 13.5082 13.0701 13.5082 13.7973C13.5082 14.5246 14.0977 15.1141 14.825 15.1141Z" fill="#64CCE3"/>
<path d="M14.8246 3.26301C15.5519 3.26301 16.1414 2.67345 16.1414 1.9462C16.1414 1.21895 15.5519 0.629395 14.8246 0.629395C14.0974 0.629395 13.5078 1.21895 13.5078 1.9462C13.5078 2.67345 14.0974 3.26301 14.8246 3.26301Z" fill="#64CCE3"/>
</svg>
