<svg width="48" height="45" viewBox="0 0 48 45" fill="none" xmlns="http://www.w3.org/2000/svg">
<path d="M1.60175 44.7081C2.13762 44.7081 2.57203 44.2737 2.57203 43.7379C2.57203 43.202 2.13762 42.7676 1.60175 42.7676C1.06588 42.7676 0.63147 43.202 0.63147 43.7379C0.63147 44.2737 1.06588 44.7081 1.60175 44.7081Z" fill="#DE6944"/>
<path d="M1.60175 36.3225C2.13762 36.3225 2.57203 35.8881 2.57203 35.3522C2.57203 34.8164 2.13762 34.382 1.60175 34.382C1.06588 34.382 0.63147 34.8164 0.63147 35.3522C0.63147 35.8881 1.06588 36.3225 1.60175 36.3225Z" fill="#DE6944"/>
<path d="M1.60175 27.936C2.13762 27.936 2.57203 27.5016 2.57203 26.9657C2.57203 26.4298 2.13762 25.9954 1.60175 25.9954C1.06588 25.9954 0.63147 26.4298 0.63147 26.9657C0.63147 27.5016 1.06588 27.936 1.60175 27.936Z" fill="#DE6944"/>
<path d="M1.60175 19.6193C2.13762 19.6193 2.57203 19.1849 2.57203 18.649C2.57203 18.1132 2.13762 17.6788 1.60175 17.6788C1.06588 17.6788 0.63147 18.1132 0.63147 18.649C0.63147 19.1849 1.06588 19.6193 1.60175 19.6193Z" fill="#DE6944"/>
<path d="M1.60175 11.2337C2.13762 11.2337 2.57203 10.7993 2.57203 10.2634C2.57203 9.72756 2.13762 9.29315 1.60175 9.29315C1.06588 9.29315 0.63147 9.72756 0.63147 10.2634C0.63147 10.7993 1.06588 11.2337 1.60175 11.2337Z" fill="#DE6944"/>
<path d="M1.6026 2.91724C2.13847 2.91724 2.57288 2.48283 2.57288 1.94696C2.57288 1.41109 2.13847 0.976685 1.6026 0.976685C1.06673 0.976685 0.632324 1.41109 0.632324 1.94696C0.632324 2.48283 1.06673 2.91724 1.6026 2.91724Z" fill="#DE6944"/>
<path d="M46.5132 44.7075C47.0491 44.7075 47.4835 44.2731 47.4835 43.7372C47.4835 43.2014 47.0491 42.767 46.5132 42.767C45.9774 42.767 45.543 43.2014 45.543 43.7372C45.543 44.2731 45.9774 44.7075 46.5132 44.7075Z" fill="#DE6944"/>
<path d="M46.5132 36.3219C47.0491 36.3219 47.4835 35.8875 47.4835 35.3516C47.4835 34.8158 47.0491 34.3813 46.5132 34.3813C45.9774 34.3813 45.543 34.8158 45.543 35.3516C45.543 35.8875 45.9774 36.3219 46.5132 36.3219Z" fill="#DE6944"/>
<path d="M46.5132 27.9354C47.0491 27.9354 47.4835 27.501 47.4835 26.9651C47.4835 26.4292 47.0491 25.9948 46.5132 25.9948C45.9774 25.9948 45.543 26.4292 45.543 26.9651C45.543 27.501 45.9774 27.9354 46.5132 27.9354Z" fill="#DE6944"/>
<path d="M46.5132 19.6187C47.0491 19.6187 47.4835 19.1843 47.4835 18.6484C47.4835 18.1126 47.0491 17.6782 46.5132 17.6782C45.9774 17.6782 45.543 18.1126 45.543 18.6484C45.543 19.1843 45.9774 19.6187 46.5132 19.6187Z" fill="#DE6944"/>
<path d="M46.5132 11.2331C47.0491 11.2331 47.4835 10.7987 47.4835 10.2628C47.4835 9.72695 47.0491 9.29254 46.5132 9.29254C45.9774 9.29254 45.543 9.72695 45.543 10.2628C45.543 10.7987 45.9774 11.2331 46.5132 11.2331Z" fill="#DE6944"/>
<path d="M46.5135 2.91663C47.0494 2.91663 47.4838 2.48222 47.4838 1.94635C47.4838 1.41048 47.0494 0.976074 46.5135 0.976074C45.9776 0.976074 45.5432 1.41048 45.5432 1.94635C45.5432 2.48222 45.9776 2.91663 46.5135 2.91663Z" fill="#DE6944"/>
<path d="M37.5727 44.7075C38.1086 44.7075 38.543 44.2731 38.543 43.7372C38.543 43.2014 38.1086 42.767 37.5727 42.767C37.0368 42.767 36.6024 43.2014 36.6024 43.7372C36.6024 44.2731 37.0368 44.7075 37.5727 44.7075Z" fill="#DE6944"/>
<path d="M37.5727 36.3219C38.1086 36.3219 38.543 35.8875 38.543 35.3516C38.543 34.8158 38.1086 34.3813 37.5727 34.3813C37.0368 34.3813 36.6024 34.8158 36.6024 35.3516C36.6024 35.8875 37.0368 36.3219 37.5727 36.3219Z" fill="#DE6944"/>
<path d="M37.5727 27.9354C38.1086 27.9354 38.543 27.501 38.543 26.9651C38.543 26.4292 38.1086 25.9948 37.5727 25.9948C37.0368 25.9948 36.6024 26.4292 36.6024 26.9651C36.6024 27.501 37.0368 27.9354 37.5727 27.9354Z" fill="#DE6944"/>
<path d="M37.5727 19.6187C38.1086 19.6187 38.543 19.1843 38.543 18.6484C38.543 18.1126 38.1086 17.6782 37.5727 17.6782C37.0368 17.6782 36.6024 18.1126 36.6024 18.6484C36.6024 19.1843 37.0368 19.6187 37.5727 19.6187Z" fill="#DE6944"/>
<path d="M37.5727 11.2331C38.1086 11.2331 38.543 10.7987 38.543 10.2628C38.543 9.72695 38.1086 9.29254 37.5727 9.29254C37.0368 9.29254 36.6024 9.72695 36.6024 10.2628C36.6024 10.7987 37.0368 11.2331 37.5727 11.2331Z" fill="#DE6944"/>
<path d="M37.5723 2.91663C38.1082 2.91663 38.5426 2.48222 38.5426 1.94635C38.5426 1.41048 38.1082 0.976074 37.5723 0.976074C37.0365 0.976074 36.6021 1.41048 36.6021 1.94635C36.6021 2.48222 37.0365 2.91663 37.5723 2.91663Z" fill="#DE6944"/>
<path d="M28.563 44.7075C29.0989 44.7075 29.5333 44.2731 29.5333 43.7372C29.5333 43.2014 29.0989 42.767 28.563 42.767C28.0272 42.767 27.5928 43.2014 27.5928 43.7372C27.5928 44.2731 28.0272 44.7075 28.563 44.7075Z" fill="#DE6944"/>
<path d="M28.563 36.3219C29.0989 36.3219 29.5333 35.8875 29.5333 35.3516C29.5333 34.8158 29.0989 34.3813 28.563 34.3813C28.0272 34.3813 27.5928 34.8158 27.5928 35.3516C27.5928 35.8875 28.0272 36.3219 28.563 36.3219Z" fill="#DE6944"/>
<path d="M28.563 27.9354C29.0989 27.9354 29.5333 27.501 29.5333 26.9651C29.5333 26.4292 29.0989 25.9948 28.563 25.9948C28.0272 25.9948 27.5928 26.4292 27.5928 26.9651C27.5928 27.501 28.0272 27.9354 28.563 27.9354Z" fill="#DE6944"/>
<path d="M28.563 19.6187C29.0989 19.6187 29.5333 19.1843 29.5333 18.6484C29.5333 18.1126 29.0989 17.6782 28.563 17.6782C28.0272 17.6782 27.5928 18.1126 27.5928 18.6484C27.5928 19.1843 28.0272 19.6187 28.563 19.6187Z" fill="#DE6944"/>
<path d="M28.563 11.2331C29.0989 11.2331 29.5333 10.7987 29.5333 10.2628C29.5333 9.72695 29.0989 9.29254 28.563 9.29254C28.0272 9.29254 27.5928 9.72695 27.5928 10.2628C27.5928 10.7987 28.0272 11.2331 28.563 11.2331Z" fill="#DE6944"/>
<path d="M28.5627 2.91663C29.0986 2.91663 29.533 2.48222 29.533 1.94635C29.533 1.41048 29.0986 0.976074 28.5627 0.976074C28.0268 0.976074 27.5924 1.41048 27.5924 1.94635C27.5924 2.48222 28.0268 2.91663 28.5627 2.91663Z" fill="#DE6944"/>
<path d="M19.5534 44.7075C20.0893 44.7075 20.5237 44.2731 20.5237 43.7372C20.5237 43.2014 20.0893 42.767 19.5534 42.767C19.0175 42.767 18.5831 43.2014 18.5831 43.7372C18.5831 44.2731 19.0175 44.7075 19.5534 44.7075Z" fill="#DE6944"/>
<path d="M19.5534 36.3219C20.0893 36.3219 20.5237 35.8875 20.5237 35.3516C20.5237 34.8158 20.0893 34.3813 19.5534 34.3813C19.0175 34.3813 18.5831 34.8158 18.5831 35.3516C18.5831 35.8875 19.0175 36.3219 19.5534 36.3219Z" fill="#DE6944"/>
<path d="M19.5534 27.9354C20.0893 27.9354 20.5237 27.501 20.5237 26.9651C20.5237 26.4292 20.0893 25.9948 19.5534 25.9948C19.0175 25.9948 18.5831 26.4292 18.5831 26.9651C18.5831 27.501 19.0175 27.9354 19.5534 27.9354Z" fill="#DE6944"/>
<path d="M19.5534 19.6187C20.0893 19.6187 20.5237 19.1843 20.5237 18.6484C20.5237 18.1126 20.0893 17.6782 19.5534 17.6782C19.0175 17.6782 18.5831 18.1126 18.5831 18.6484C18.5831 19.1843 19.0175 19.6187 19.5534 19.6187Z" fill="#DE6944"/>
<path d="M19.5534 11.2331C20.0893 11.2331 20.5237 10.7987 20.5237 10.2628C20.5237 9.72695 20.0893 9.29254 19.5534 9.29254C19.0175 9.29254 18.5831 9.72695 18.5831 10.2628C18.5831 10.7987 19.0175 11.2331 19.5534 11.2331Z" fill="#DE6944"/>
<path d="M19.5529 2.91663C20.0888 2.91663 20.5232 2.48222 20.5232 1.94635C20.5232 1.41048 20.0888 0.976074 19.5529 0.976074C19.017 0.976074 18.5826 1.41048 18.5826 1.94635C18.5826 2.48222 19.017 2.91663 19.5529 2.91663Z" fill="#DE6944"/>
<path d="M10.5436 44.7075C11.0795 44.7075 11.5139 44.2731 11.5139 43.7372C11.5139 43.2014 11.0795 42.767 10.5436 42.767C10.0078 42.767 9.57336 43.2014 9.57336 43.7372C9.57336 44.2731 10.0078 44.7075 10.5436 44.7075Z" fill="#DE6944"/>
<path d="M10.5436 36.3219C11.0795 36.3219 11.5139 35.8875 11.5139 35.3516C11.5139 34.8158 11.0795 34.3813 10.5436 34.3813C10.0078 34.3813 9.57336 34.8158 9.57336 35.3516C9.57336 35.8875 10.0078 36.3219 10.5436 36.3219Z" fill="#DE6944"/>
<path d="M10.5436 27.9354C11.0795 27.9354 11.5139 27.501 11.5139 26.9651C11.5139 26.4292 11.0795 25.9948 10.5436 25.9948C10.0078 25.9948 9.57336 26.4292 9.57336 26.9651C9.57336 27.501 10.0078 27.9354 10.5436 27.9354Z" fill="#DE6944"/>
<path d="M10.5436 19.6187C11.0795 19.6187 11.5139 19.1843 11.5139 18.6484C11.5139 18.1126 11.0795 17.6782 10.5436 17.6782C10.0078 17.6782 9.57336 18.1126 9.57336 18.6484C9.57336 19.1843 10.0078 19.6187 10.5436 19.6187Z" fill="#DE6944"/>
<path d="M10.5436 11.2331C11.0795 11.2331 11.5139 10.7987 11.5139 10.2628C11.5139 9.72695 11.0795 9.29254 10.5436 9.29254C10.0078 9.29254 9.57336 9.72695 9.57336 10.2628C9.57336 10.7987 10.0078 11.2331 10.5436 11.2331Z" fill="#DE6944"/>
<path d="M10.5432 2.91663C11.079 2.91663 11.5134 2.48222 11.5134 1.94635C11.5134 1.41048 11.079 0.976074 10.5432 0.976074C10.0073 0.976074 9.57288 1.41048 9.57288 1.94635C9.57288 2.48222 10.0073 2.91663 10.5432 2.91663Z" fill="#DE6944"/>
</svg>
