<svg width="14" height="14" viewBox="0 0 14 14" fill="none" xmlns="http://www.w3.org/2000/svg">
<path d="M8.44623 10.906L8.07618 9.47207C8.02992 9.30246 7.86031 9.19453 7.69071 9.24078C7.5211 9.28704 7.41317 9.45665 7.45942 9.62626L7.82948 11.0756C7.444 11.2915 7.18188 11.6924 7.18188 12.155C7.18188 12.8488 7.73696 13.4039 8.43081 13.4039C9.12466 13.4039 9.67974 12.8488 9.67974 12.155C9.69516 11.4765 9.14008 10.9214 8.44623 10.906Z" fill="#1943EF"/>
<path d="M4.2841 7.37479L2.32591 8.05322C2.09462 7.77568 1.75541 7.59066 1.35452 7.59066C0.66067 7.59066 0.105591 8.14574 0.105591 8.83958C0.105591 9.53343 0.66067 10.0885 1.35452 10.0885C2.04837 10.0885 2.60345 9.53343 2.60345 8.83958C2.60345 8.77791 2.58803 8.70081 2.58803 8.63914L4.48455 7.97613C4.65416 7.91445 4.73125 7.74484 4.68499 7.57524C4.63874 7.40563 4.45371 7.31312 4.2841 7.37479Z" fill="#1943EF"/>
<path d="M12.7321 6.03351C12.1461 6.03351 11.6682 6.4344 11.5294 6.95864H10.0338C9.86415 6.95864 9.70996 7.09741 9.70996 7.26702C9.70996 7.43662 9.84873 7.57539 10.0338 7.57539H11.514C11.6527 8.11505 12.1461 8.50053 12.7166 8.50053C13.4105 8.50053 13.9656 7.94545 13.9656 7.2516C13.9656 6.55775 13.4259 6.03351 12.7321 6.03351Z" fill="#1943EF"/>
<path d="M7.18193 8.90107C8.34005 8.90107 9.27889 7.96913 9.27889 6.81952C9.27889 5.66992 8.34005 4.73798 7.18193 4.73798C6.0238 4.73798 5.08496 5.66992 5.08496 6.81952C5.08496 7.96913 6.0238 8.90107 7.18193 8.90107Z" fill="#1943EF"/>
<path d="M5.28629 4.4919L4.60786 3.98308C4.66953 3.82889 4.70037 3.6747 4.70037 3.50509C4.70037 2.81124 4.14529 2.25616 3.45144 2.25616C2.75759 2.25616 2.20251 2.81124 2.20251 3.50509C2.20251 4.19894 2.75759 4.75402 3.45144 4.75402C3.7444 4.75402 4.00652 4.64609 4.22239 4.4919L4.90082 5.01614C4.96249 5.0624 5.02417 5.07782 5.08584 5.07782C5.17835 5.07782 5.27087 5.03156 5.33254 4.95447C5.45589 4.80028 5.42506 4.59983 5.28629 4.4919Z" fill="#1943EF"/>
<path d="M8.49289 4.61475C8.53915 4.64559 8.60082 4.66101 8.6625 4.66101C8.77043 4.66101 8.87836 4.59933 8.94004 4.50682L9.92684 2.87242C10.0656 2.91868 10.2044 2.94952 10.3432 2.94952C11.037 2.94952 11.5921 2.39444 11.5921 1.70059C11.5921 1.00674 11.037 0.45166 10.3432 0.45166C9.6493 0.45166 9.09422 1.00674 9.09422 1.70059C9.09422 2.00897 9.21758 2.2865 9.4026 2.51779L8.40038 4.18303C8.29244 4.32179 8.3387 4.52224 8.49289 4.61475Z" fill="#1943EF"/>
</svg>
