<svg width="24" height="27" viewBox="0 0 24 27" fill="none" xmlns="http://www.w3.org/2000/svg">
<mask id="path-1-outside-1_0_996" maskUnits="userSpaceOnUse" x="-0.49585" y="-0.0281982" width="24" height="27" fill="black">
<rect fill="white" x="-0.49585" y="-0.0281982" width="24" height="27"/>
<path fill-rule="evenodd" clip-rule="evenodd" d="M12.6011 6.01242C12.6011 8.79181 14.8624 11.0529 17.6417 11.0529C20.4211 11.0529 22.6822 8.79181 22.6822 6.01242C22.6822 3.23304 20.4211 0.971802 17.6417 0.971802C14.8624 0.971802 12.6011 3.23304 12.6011 6.01242ZM14.1133 6.01242C14.1133 4.06665 15.696 2.48397 17.6417 2.48397C19.5873 2.48397 21.17 4.06665 21.17 6.01242C21.17 7.95801 19.5873 9.54069 17.6417 9.54069C15.696 9.54069 14.1133 7.95801 14.1133 6.01242ZM18.9021 22.1421H14.3504C14.3603 22.1909 14.3655 22.2414 14.3655 22.2931C14.3655 24.3779 12.6689 26.0735 10.5851 26.0735C8.50141 26.0735 6.80466 24.3779 6.80466 22.2931C6.80466 22.2414 6.80986 22.1909 6.81977 22.1421H2.26829C1.29549 22.1421 0.50415 21.3507 0.50415 20.3779C0.50415 19.8616 0.728982 19.3728 1.12105 19.0371C1.14634 19.0149 1.17348 18.9948 1.20172 18.9765C2.68158 17.6851 3.52849 15.8272 3.52849 13.8654V11.0528C3.52849 7.16159 6.69496 3.99604 10.5852 3.99604C10.7465 3.99604 10.921 3.999 11.0823 4.02632C11.4945 4.0948 11.7729 4.48503 11.7042 4.89629C11.6357 5.30756 11.2385 5.58593 10.8342 5.51726C10.7688 5.50663 10.6981 5.50729 10.6312 5.50792L10.5852 5.50821C7.52875 5.50821 5.04066 7.9952 5.04066 11.0528V13.8654C5.04066 16.3011 3.97298 18.6057 2.11415 20.1872L2.10636 20.1936L2.10634 20.1936C2.09432 20.2033 2.08306 20.2124 2.06967 20.2216C2.04253 20.2559 2.01632 20.3083 2.01632 20.3779C2.01632 20.5149 2.13132 20.6299 2.26829 20.6299H18.9021C19.0393 20.6299 19.1543 20.5149 19.1543 20.3779C19.1543 20.3072 19.1281 20.2559 19.0998 20.2216C19.0884 20.2132 19.0782 20.2049 19.0674 20.1961C19.0638 20.1932 19.0602 20.1903 19.0565 20.1872C17.1965 18.6046 16.1299 16.3011 16.1299 13.8654V12.7667C16.1299 12.3493 16.4687 12.0106 16.886 12.0106C17.3034 12.0106 17.6421 12.3493 17.6421 12.7667V13.8654C17.6421 15.8283 18.4899 17.6871 19.9718 18.9797C19.999 18.9977 20.0252 19.0169 20.0494 19.0382C20.4416 19.3728 20.6665 19.8616 20.6665 20.3779C20.6665 21.3507 19.8751 22.1421 18.9021 22.1421ZM8.30171 22.1421H12.8684C12.8585 22.1909 12.8533 22.2414 12.8533 22.2931C12.8533 23.5443 11.8351 24.5614 10.5851 24.5614C9.33503 24.5614 8.31682 23.5443 8.31682 22.2931C8.31682 22.2414 8.31162 22.1909 8.30171 22.1421Z"/>
</mask>
<path fill-rule="evenodd" clip-rule="evenodd" d="M12.6011 6.01242C12.6011 8.79181 14.8624 11.0529 17.6417 11.0529C20.4211 11.0529 22.6822 8.79181 22.6822 6.01242C22.6822 3.23304 20.4211 0.971802 17.6417 0.971802C14.8624 0.971802 12.6011 3.23304 12.6011 6.01242ZM14.1133 6.01242C14.1133 4.06665 15.696 2.48397 17.6417 2.48397C19.5873 2.48397 21.17 4.06665 21.17 6.01242C21.17 7.95801 19.5873 9.54069 17.6417 9.54069C15.696 9.54069 14.1133 7.95801 14.1133 6.01242ZM18.9021 22.1421H14.3504C14.3603 22.1909 14.3655 22.2414 14.3655 22.2931C14.3655 24.3779 12.6689 26.0735 10.5851 26.0735C8.50141 26.0735 6.80466 24.3779 6.80466 22.2931C6.80466 22.2414 6.80986 22.1909 6.81977 22.1421H2.26829C1.29549 22.1421 0.50415 21.3507 0.50415 20.3779C0.50415 19.8616 0.728982 19.3728 1.12105 19.0371C1.14634 19.0149 1.17348 18.9948 1.20172 18.9765C2.68158 17.6851 3.52849 15.8272 3.52849 13.8654V11.0528C3.52849 7.16159 6.69496 3.99604 10.5852 3.99604C10.7465 3.99604 10.921 3.999 11.0823 4.02632C11.4945 4.0948 11.7729 4.48503 11.7042 4.89629C11.6357 5.30756 11.2385 5.58593 10.8342 5.51726C10.7688 5.50663 10.6981 5.50729 10.6312 5.50792L10.5852 5.50821C7.52875 5.50821 5.04066 7.9952 5.04066 11.0528V13.8654C5.04066 16.3011 3.97298 18.6057 2.11415 20.1872L2.10636 20.1936L2.10634 20.1936C2.09432 20.2033 2.08306 20.2124 2.06967 20.2216C2.04253 20.2559 2.01632 20.3083 2.01632 20.3779C2.01632 20.5149 2.13132 20.6299 2.26829 20.6299H18.9021C19.0393 20.6299 19.1543 20.5149 19.1543 20.3779C19.1543 20.3072 19.1281 20.2559 19.0998 20.2216C19.0884 20.2132 19.0782 20.2049 19.0674 20.1961C19.0638 20.1932 19.0602 20.1903 19.0565 20.1872C17.1965 18.6046 16.1299 16.3011 16.1299 13.8654V12.7667C16.1299 12.3493 16.4687 12.0106 16.886 12.0106C17.3034 12.0106 17.6421 12.3493 17.6421 12.7667V13.8654C17.6421 15.8283 18.4899 17.6871 19.9718 18.9797C19.999 18.9977 20.0252 19.0169 20.0494 19.0382C20.4416 19.3728 20.6665 19.8616 20.6665 20.3779C20.6665 21.3507 19.8751 22.1421 18.9021 22.1421ZM8.30171 22.1421H12.8684C12.8585 22.1909 12.8533 22.2414 12.8533 22.2931C12.8533 23.5443 11.8351 24.5614 10.5851 24.5614C9.33503 24.5614 8.31682 23.5443 8.31682 22.2931C8.31682 22.2414 8.31162 22.1909 8.30171 22.1421Z" fill="#26C296"/>
<path d="M14.3504 22.1421V21.7404H13.859L13.9568 22.222L14.3504 22.1421ZM6.81977 22.1421L7.21337 22.222L7.31114 21.7404H6.81977V22.1421ZM1.12105 19.0371L1.38232 19.3421L1.38568 19.3392L1.12105 19.0371ZM1.20172 18.9765L1.4199 19.3137L1.44409 19.2981L1.46579 19.2791L1.20172 18.9765ZM11.0823 4.02632L11.0153 4.42231L11.0165 4.42252L11.0823 4.02632ZM11.7042 4.89629L11.3081 4.83015L11.308 4.83032L11.7042 4.89629ZM10.8342 5.51726L10.9015 5.12129L10.8986 5.12082L10.8342 5.51726ZM10.6312 5.50792L10.6338 5.90955L10.635 5.90953L10.6312 5.50792ZM10.5852 5.50821V5.90985L10.5878 5.90984L10.5852 5.50821ZM2.11415 20.1872L2.36679 20.4996L2.37442 20.4931L2.11415 20.1872ZM2.10636 20.1936L1.85379 19.8813L1.83894 19.8933L1.8253 19.9066L2.10636 20.1936ZM2.10634 20.1936L2.35927 20.5056L2.37392 20.4937L2.38739 20.4805L2.10634 20.1936ZM2.06967 20.2216L1.84338 19.8898L1.79264 19.9244L1.75457 19.9725L2.06967 20.2216ZM19.0998 20.2216L19.41 19.9664L19.3779 19.9274L19.337 19.8975L19.0998 20.2216ZM19.0674 20.1961L18.8138 20.5076L18.8139 20.5076L19.0674 20.1961ZM19.0565 20.1872L18.7961 20.4932L18.8046 20.5001L19.0565 20.1872ZM19.9718 18.9797L19.7078 19.2823L19.7274 19.2994L19.7491 19.3138L19.9718 18.9797ZM20.0494 19.0382L19.7844 19.34L19.7887 19.3437L20.0494 19.0382ZM12.8684 22.1421L13.262 22.222L13.3598 21.7404H12.8684V22.1421ZM8.30171 22.1421V21.7404H7.81034L7.90811 22.222L8.30171 22.1421ZM17.6417 10.6512C15.0842 10.6512 13.0028 8.56997 13.0028 6.01242H12.1995C12.1995 9.01364 14.6406 11.4545 17.6417 11.4545V10.6512ZM22.2805 6.01242C22.2805 8.56999 20.1993 10.6512 17.6417 10.6512V11.4545C20.6429 11.4545 23.0838 9.01362 23.0838 6.01242H22.2805ZM17.6417 1.37343C20.1993 1.37343 22.2805 3.45484 22.2805 6.01242H23.0838C23.0838 3.01124 20.643 0.57017 17.6417 0.57017V1.37343ZM13.0028 6.01242C13.0028 3.45485 15.0842 1.37343 17.6417 1.37343V0.57017C14.6405 0.57017 12.1995 3.01122 12.1995 6.01242H13.0028ZM17.6417 2.08234C15.4742 2.08234 13.7117 3.84484 13.7117 6.01242H14.5149C14.5149 4.28847 15.9178 2.8856 17.6417 2.8856V2.08234ZM21.5716 6.01242C21.5716 3.84485 19.8092 2.08234 17.6417 2.08234V2.8856C19.3655 2.8856 20.7684 4.28845 20.7684 6.01242H21.5716ZM17.6417 9.94233C19.8091 9.94233 21.5716 8.17983 21.5716 6.01242H20.7684C20.7684 7.7362 19.3655 9.13906 17.6417 9.13906V9.94233ZM13.7117 6.01242C13.7117 8.17984 15.4742 9.94233 17.6417 9.94233V9.13906C15.9178 9.13906 14.5149 7.73618 14.5149 6.01242H13.7117ZM14.3504 22.5437H18.9021V21.7404H14.3504V22.5437ZM14.7671 22.2931C14.7671 22.2144 14.7592 22.1371 14.744 22.0621L13.9568 22.222C13.9614 22.2446 13.9639 22.2684 13.9639 22.2931H14.7671ZM10.5851 26.4752C12.8907 26.4752 14.7671 24.5998 14.7671 22.2931H13.9639C13.9639 24.156 12.4472 25.6719 10.5851 25.6719V26.4752ZM6.40302 22.2931C6.40302 24.5998 8.27968 26.4752 10.5851 26.4752V25.6719C8.72315 25.6719 7.20629 24.156 7.20629 22.2931H6.40302ZM6.42617 22.0621C6.41095 22.1371 6.40302 22.2144 6.40302 22.2931H7.20629C7.20629 22.2684 7.20877 22.2446 7.21337 22.222L6.42617 22.0621ZM2.26829 22.5437H6.81977V21.7404H2.26829V22.5437ZM0.102518 20.3779C0.102518 21.5725 1.07368 22.5437 2.26829 22.5437V21.7404C1.51731 21.7404 0.905782 21.1289 0.905782 20.3779H0.102518ZM0.859804 18.732C0.378582 19.1441 0.102518 19.7444 0.102518 20.3779H0.905782C0.905782 19.9789 1.07938 19.6015 1.3823 19.3421L0.859804 18.732ZM0.983534 18.6393C0.941033 18.6668 0.898055 18.6985 0.856426 18.7349L1.38568 19.3392C1.39463 19.3313 1.40592 19.3228 1.4199 19.3137L0.983534 18.6393ZM3.12685 13.8654C3.12685 15.7108 2.33041 17.4585 0.937646 18.6739L1.46579 19.2791C3.03276 17.9117 3.93012 15.9436 3.93012 13.8654H3.12685ZM3.12685 11.0528V13.8654H3.93012V11.0528H3.12685ZM10.5852 3.59441C6.47318 3.59441 3.12685 6.93974 3.12685 11.0528H3.93012C3.93012 7.38344 6.91674 4.39768 10.5852 4.39768V3.59441ZM11.1494 3.63032C10.9514 3.5968 10.7467 3.59441 10.5852 3.59441V4.39768C10.7464 4.39768 10.8906 4.4012 11.0153 4.42231L11.1494 3.63032ZM12.1003 4.96244C12.2056 4.3323 11.7793 3.73498 11.1481 3.63012L11.0165 4.42252C11.2097 4.45462 11.3402 4.63775 11.3081 4.83015L12.1003 4.96244ZM10.767 5.91322C11.3892 6.01892 11.9952 5.59401 12.1004 4.96226L11.308 4.83032C11.2763 5.02111 11.0877 5.15293 10.9015 5.1213L10.767 5.91322ZM10.635 5.90953C10.7089 5.90884 10.7443 5.90954 10.7698 5.91369L10.8986 5.12082C10.7933 5.10371 10.6873 5.10574 10.6274 5.10631L10.635 5.90953ZM10.5878 5.90984L10.6338 5.90954L10.6287 5.1063L10.5827 5.10659L10.5878 5.90984ZM5.44229 11.0528C5.44229 8.21707 7.75052 5.90984 10.5852 5.90984V5.10658C7.30699 5.10658 4.63902 7.77334 4.63902 11.0528H5.44229ZM5.44229 13.8654V11.0528H4.63902V13.8654H5.44229ZM2.37442 20.4931C4.32261 18.8355 5.44229 16.4192 5.44229 13.8654H4.63902C4.63902 16.1829 3.62335 18.3758 1.85389 19.8814L2.37442 20.4931ZM2.35892 20.5058L2.36672 20.4995L1.86159 19.875L1.85379 19.8813L2.35892 20.5058ZM2.38739 20.4805L2.38741 20.4805L1.8253 19.9066L1.82528 19.9067L2.38739 20.4805ZM2.29595 20.5534C2.32507 20.5335 2.34861 20.5142 2.35927 20.5056L1.85341 19.8816C1.84679 19.8869 1.84441 19.8889 1.8425 19.8903C1.84121 19.8913 1.84176 19.8909 1.84338 19.8898L2.29595 20.5534ZM2.41795 20.3779C2.41795 20.4148 2.4028 20.4478 2.38476 20.4706L1.75457 19.9725C1.68226 20.064 1.61469 20.2018 1.61469 20.3779H2.41795ZM2.26829 20.2283C2.31401 20.2283 2.3511 20.2474 2.37494 20.2713C2.39877 20.2951 2.41795 20.3322 2.41795 20.3779H1.61469C1.61469 20.7367 1.9095 21.0315 2.26829 21.0315V20.2283ZM18.9021 20.2283H2.26829V21.0315H18.9021V20.2283ZM18.7527 20.3779C18.7527 20.3322 18.7718 20.2951 18.7957 20.2712C18.8196 20.2473 18.8566 20.2283 18.9021 20.2283V21.0315C19.2609 21.0315 19.5559 20.7369 19.5559 20.3779H18.7527ZM18.7897 20.4767C18.7802 20.4652 18.7705 20.4501 18.7633 20.4315C18.7558 20.4122 18.7527 20.3935 18.7527 20.3779H19.5559C19.5559 20.1997 19.4875 20.0607 19.41 19.9664L18.7897 20.4767ZM18.8139 20.5076C18.8237 20.5156 18.8417 20.5303 18.8626 20.5457L19.337 19.8975C19.3365 19.8971 19.3353 19.8962 19.3327 19.8942C19.3298 19.8919 19.3266 19.8893 19.3209 19.8846L18.8139 20.5076ZM18.8046 20.5001C18.8074 20.5023 18.8102 20.5046 18.8138 20.5076L19.321 19.8846C19.3174 19.8818 19.313 19.8782 19.3083 19.8744L18.8046 20.5001ZM15.7283 13.8654C15.7283 16.4192 16.8469 18.8344 18.7962 20.4931L19.3167 19.8814C17.5462 18.3747 16.5316 16.1829 16.5316 13.8654H15.7283ZM15.7283 12.7667V13.8654H16.5316V12.7667H15.7283ZM16.886 11.609C16.2469 11.609 15.7283 12.1275 15.7283 12.7667H16.5316C16.5316 12.5711 16.6905 12.4122 16.886 12.4122V11.609ZM18.0438 12.7667C18.0438 12.1275 17.5252 11.609 16.886 11.609V12.4122C17.0816 12.4122 17.2405 12.5711 17.2405 12.7667H18.0438ZM18.0438 13.8654V12.7667H17.2405V13.8654H18.0438ZM20.2358 18.677C18.841 17.4604 18.0438 15.7118 18.0438 13.8654H17.2405C17.2405 15.9448 18.1389 17.9139 19.7078 19.2823L20.2358 18.677ZM20.3143 18.7363C20.2727 18.6997 20.231 18.6698 20.1946 18.6455L19.7491 19.3138C19.7669 19.3257 19.7777 19.3341 19.7844 19.34L20.3143 18.7363ZM21.0681 20.3779C21.0681 19.7445 20.7921 19.1439 20.31 18.7326L19.7887 19.3437C20.0912 19.6018 20.2648 19.9788 20.2648 20.3779H21.0681ZM18.9021 22.5437C20.0969 22.5437 21.0681 21.5726 21.0681 20.3779H20.2648C20.2648 21.1289 19.6533 21.7404 18.9021 21.7404V22.5437ZM12.8684 21.7404H8.30171V22.5437H12.8684V21.7404ZM13.255 22.2931C13.255 22.2684 13.2574 22.2446 13.262 22.222L12.4748 22.0621C12.4596 22.1371 12.4517 22.2144 12.4517 22.2931H13.255ZM10.5851 24.963C12.0568 24.963 13.255 23.7662 13.255 22.2931H12.4517C12.4517 23.3223 11.6134 24.1597 10.5851 24.1597V24.963ZM7.91519 22.2931C7.91519 23.7662 9.11334 24.963 10.5851 24.963V24.1597C9.55671 24.1597 8.71846 23.3223 8.71846 22.2931H7.91519ZM7.90811 22.222C7.91271 22.2446 7.91519 22.2684 7.91519 22.2931H8.71846C8.71846 22.2144 8.71053 22.1371 8.69531 22.0621L7.90811 22.222Z" fill="#26C296" mask="url(#path-1-outside-1_0_996)"/>
</svg>
