<svg width="18" height="18" viewBox="0 0 18 18" fill="none" xmlns="http://www.w3.org/2000/svg">
<rect width="18" height="18" fill="#E5E5E5"/>
<g filter="url(#filter0_ddd_0_1)">
<g clip-path="url(#clip0_0_1)">
<rect x="-734" y="-806" width="998" height="3653.1" rx="12" fill="white"/>
<g filter="url(#filter1_d_0_1)">
<rect x="-629" y="-19" width="792.856" height="495.535" rx="20.7917" fill="#F5F5FB"/>
<rect x="-628.725" y="-18.7247" width="792.305" height="494.984" rx="20.5164" stroke="#EAEDF3" stroke-width="0.550594"/>
</g>
<path d="M-465.092 -18.6535H143.064C154.355 -18.6535 163.509 -9.49993 163.509 1.7916V37.484H-465.092V-18.6535Z" fill="white" stroke="#EAEDF3" stroke-width="0.693056"/>
<g opacity="0.4">
<path d="M9.29988 15.9124C10.3102 15.9124 10.8625 15.1976 10.8625 14.1906H7.73401C7.73401 15.1976 8.28629 15.9124 9.29988 15.9124V15.9124Z" fill="#1616B3"/>
<path d="M14.3721 12.5406C13.8718 11.8811 12.8875 11.4945 12.8875 8.54144C12.8875 5.51041 11.549 4.29214 10.3015 3.99976C10.1845 3.97052 10.1001 3.93154 10.1001 3.80809V3.71388C10.1001 3.27855 9.74272 2.91145 9.30739 2.9147C8.87207 2.9082 8.51471 3.27855 8.51471 3.71388V3.80809C8.51471 3.92829 8.43025 3.97052 8.31329 3.99976C7.06254 4.29539 5.72733 5.51041 5.72733 8.54144C5.72733 11.4945 4.74297 11.8779 4.24267 12.5406C3.92105 12.9662 4.22643 13.5737 4.75922 13.5737H13.8588C14.3884 13.5737 14.6937 12.9629 14.3721 12.5406V12.5406Z" fill="#1616B3"/>
</g>
<circle cx="12.7694" cy="3.87061" r="3.11875" fill="#1943EF" stroke="white" stroke-width="0.693056"/>
</g>
</g>
<defs>
<filter id="filter0_ddd_0_1" x="-974" y="-966" width="1478" height="4133.1" filterUnits="userSpaceOnUse" color-interpolation-filters="sRGB">
<feFlood flood-opacity="0" result="BackgroundImageFix"/>
<feColorMatrix in="SourceAlpha" type="matrix" values="0 0 0 0 0 0 0 0 0 0 0 0 0 0 0 0 0 0 127 0" result="hardAlpha"/>
<feOffset dx="40" dy="16"/>
<feGaussianBlur stdDeviation="40"/>
<feColorMatrix type="matrix" values="0 0 0 0 0.67451 0 0 0 0 0.560784 0 0 0 0 0.560784 0 0 0 0.05 0"/>
<feBlend mode="normal" in2="BackgroundImageFix" result="effect1_dropShadow_0_1"/>
<feColorMatrix in="SourceAlpha" type="matrix" values="0 0 0 0 0 0 0 0 0 0 0 0 0 0 0 0 0 0 127 0" result="hardAlpha"/>
<feOffset dx="80" dy="-40"/>
<feGaussianBlur stdDeviation="40"/>
<feColorMatrix type="matrix" values="0 0 0 0 0.675 0 0 0 0 0.559687 0 0 0 0 0.559687 0 0 0 0.13 0"/>
<feBlend mode="normal" in2="effect1_dropShadow_0_1" result="effect2_dropShadow_0_1"/>
<feColorMatrix in="SourceAlpha" type="matrix" values="0 0 0 0 0 0 0 0 0 0 0 0 0 0 0 0 0 0 127 0" result="hardAlpha"/>
<feOffset dy="80"/>
<feGaussianBlur stdDeviation="120"/>
<feColorMatrix type="matrix" values="0 0 0 0 0.533333 0 0 0 0 0.455556 0 0 0 0 0.455556 0 0 0 0.25 0"/>
<feBlend mode="normal" in2="effect2_dropShadow_0_1" result="effect3_dropShadow_0_1"/>
<feBlend mode="normal" in="SourceGraphic" in2="effect3_dropShadow_0_1" result="shape"/>
</filter>
<filter id="filter1_d_0_1" x="-684.444" y="-60.5833" width="903.744" height="606.424" filterUnits="userSpaceOnUse" color-interpolation-filters="sRGB">
<feFlood flood-opacity="0" result="BackgroundImageFix"/>
<feColorMatrix in="SourceAlpha" type="matrix" values="0 0 0 0 0 0 0 0 0 0 0 0 0 0 0 0 0 0 127 0" result="hardAlpha"/>
<feOffset dy="13.8611"/>
<feGaussianBlur stdDeviation="27.7222"/>
<feColorMatrix type="matrix" values="0 0 0 0 0.94902 0 0 0 0 0.960784 0 0 0 0 0.980392 0 0 0 1 0"/>
<feBlend mode="multiply" in2="BackgroundImageFix" result="effect1_dropShadow_0_1"/>
<feBlend mode="normal" in="SourceGraphic" in2="effect1_dropShadow_0_1" result="shape"/>
</filter>
<clipPath id="clip0_0_1">
<rect x="-734" y="-806" width="998" height="3653.1" rx="12" fill="white"/>
</clipPath>
</defs>
</svg>
