<svg width="13" height="14" viewBox="0 0 13 14" fill="none" xmlns="http://www.w3.org/2000/svg">
<mask id="path-1-outside-1_0_992" maskUnits="userSpaceOnUse" x="-0.24292" y="-0.548187" width="13" height="15" fill="black">
<rect fill="white" x="-0.24292" y="-0.548187" width="13" height="15"/>
<path fill-rule="evenodd" clip-rule="evenodd" d="M7.01821 3.06124C7.01821 4.50007 8.1888 5.67057 9.62764 5.67057C11.0665 5.67057 12.237 4.50007 12.237 3.06124C12.237 1.62241 11.0665 0.451813 9.62764 0.451813C8.1888 0.451813 7.01821 1.62241 7.01821 3.06124ZM7.80103 3.06124C7.80103 2.05395 8.62035 1.23463 9.62764 1.23463C10.6348 1.23463 11.4541 2.05395 11.4541 3.06124C11.4541 4.06843 10.6348 4.88775 9.62764 4.88775C8.62035 4.88775 7.80103 4.06843 7.80103 3.06124ZM10.2813 11.4109H7.92386C7.92899 11.4362 7.93169 11.4623 7.93169 11.4891C7.93169 12.5683 7.0534 13.4462 5.97464 13.4462C4.89597 13.4462 4.01759 12.5683 4.01759 11.4891C4.01759 11.4623 4.02028 11.4362 4.02541 11.4109H1.67034C1.16674 11.4109 0.75708 11.0013 0.75708 10.4977C0.75708 10.2304 0.873471 9.97734 1.07644 9.80352C1.08953 9.79206 1.10358 9.78164 1.1182 9.77218C1.88429 9.10365 2.32272 8.14185 2.32272 7.12625V5.67022C2.32272 3.65583 3.96194 2.01709 5.97584 2.01709C6.05936 2.01709 6.14966 2.01862 6.23318 2.03277C6.44656 2.06822 6.59067 2.27023 6.55512 2.48314C6.51967 2.69604 6.31402 2.84014 6.10475 2.8046C6.07087 2.79909 6.03429 2.79944 5.99965 2.79976L5.97584 2.79991C4.39358 2.79991 3.10554 4.08738 3.10554 5.67022V7.12625C3.10554 8.38715 2.55282 9.5802 1.59055 10.399L1.58652 10.4022C1.58029 10.4073 1.57445 10.412 1.56752 10.4167C1.55347 10.4345 1.5399 10.4616 1.5399 10.4977C1.5399 10.5686 1.59943 10.6281 1.67034 10.6281H10.2813C10.3523 10.6281 10.4119 10.5686 10.4119 10.4977C10.4119 10.4611 10.3983 10.4345 10.3837 10.4167C10.3759 10.411 10.3691 10.4053 10.3612 10.399C9.39838 9.57963 8.84624 8.38715 8.84624 7.12625V6.55748C8.84624 6.34142 9.02159 6.16607 9.23765 6.16607C9.45371 6.16607 9.62906 6.34142 9.62906 6.55748V7.12625C9.62906 8.14242 10.068 9.1047 10.8351 9.7738C10.8492 9.78317 10.8627 9.79311 10.8752 9.8041C11.0783 9.97734 11.1947 10.2304 11.1947 10.4977C11.1947 11.0013 10.785 11.4109 10.2813 11.4109ZM4.79259 11.4109H7.15669C7.15156 11.4362 7.14887 11.4623 7.14887 11.4891C7.14887 12.1368 6.62176 12.6633 5.97464 12.6633C5.32751 12.6633 4.80041 12.1368 4.80041 11.4891C4.80041 11.4623 4.79772 11.4362 4.79259 11.4109Z"/>
</mask>
<path fill-rule="evenodd" clip-rule="evenodd" d="M7.01821 3.06124C7.01821 4.50007 8.1888 5.67057 9.62764 5.67057C11.0665 5.67057 12.237 4.50007 12.237 3.06124C12.237 1.62241 11.0665 0.451813 9.62764 0.451813C8.1888 0.451813 7.01821 1.62241 7.01821 3.06124ZM7.80103 3.06124C7.80103 2.05395 8.62035 1.23463 9.62764 1.23463C10.6348 1.23463 11.4541 2.05395 11.4541 3.06124C11.4541 4.06843 10.6348 4.88775 9.62764 4.88775C8.62035 4.88775 7.80103 4.06843 7.80103 3.06124ZM10.2813 11.4109H7.92386C7.92899 11.4362 7.93169 11.4623 7.93169 11.4891C7.93169 12.5683 7.0534 13.4462 5.97464 13.4462C4.89597 13.4462 4.01759 12.5683 4.01759 11.4891C4.01759 11.4623 4.02028 11.4362 4.02541 11.4109H1.67034C1.16674 11.4109 0.75708 11.0013 0.75708 10.4977C0.75708 10.2304 0.873471 9.97734 1.07644 9.80352C1.08953 9.79206 1.10358 9.78164 1.1182 9.77218C1.88429 9.10365 2.32272 8.14185 2.32272 7.12625V5.67022C2.32272 3.65583 3.96194 2.01709 5.97584 2.01709C6.05936 2.01709 6.14966 2.01862 6.23318 2.03277C6.44656 2.06822 6.59067 2.27023 6.55512 2.48314C6.51967 2.69604 6.31402 2.84014 6.10475 2.8046C6.07087 2.79909 6.03429 2.79944 5.99965 2.79976L5.97584 2.79991C4.39358 2.79991 3.10554 4.08738 3.10554 5.67022V7.12625C3.10554 8.38715 2.55282 9.5802 1.59055 10.399L1.58652 10.4022C1.58029 10.4073 1.57445 10.412 1.56752 10.4167C1.55347 10.4345 1.5399 10.4616 1.5399 10.4977C1.5399 10.5686 1.59943 10.6281 1.67034 10.6281H10.2813C10.3523 10.6281 10.4119 10.5686 10.4119 10.4977C10.4119 10.4611 10.3983 10.4345 10.3837 10.4167C10.3759 10.411 10.3691 10.4053 10.3612 10.399C9.39838 9.57963 8.84624 8.38715 8.84624 7.12625V6.55748C8.84624 6.34142 9.02159 6.16607 9.23765 6.16607C9.45371 6.16607 9.62906 6.34142 9.62906 6.55748V7.12625C9.62906 8.14242 10.068 9.1047 10.8351 9.7738C10.8492 9.78317 10.8627 9.79311 10.8752 9.8041C11.0783 9.97734 11.1947 10.2304 11.1947 10.4977C11.1947 11.0013 10.785 11.4109 10.2813 11.4109ZM4.79259 11.4109H7.15669C7.15156 11.4362 7.14887 11.4623 7.14887 11.4891C7.14887 12.1368 6.62176 12.6633 5.97464 12.6633C5.32751 12.6633 4.80041 12.1368 4.80041 11.4891C4.80041 11.4623 4.79772 11.4362 4.79259 11.4109Z" fill="#1943EF"/>
<path d="M7.92386 11.4109V11.203H7.6695L7.7201 11.4523L7.92386 11.4109ZM4.02541 11.4109L4.22917 11.4523L4.27977 11.203H4.02541V11.4109ZM1.07644 9.80352L1.21169 9.96145L1.21344 9.95992L1.07644 9.80352ZM1.1182 9.77218L1.23115 9.94674L1.24367 9.93864L1.2549 9.92884L1.1182 9.77218ZM6.23318 2.03277L6.19847 2.23777L6.1991 2.23787L6.23318 2.03277ZM6.55512 2.48314L6.35004 2.44889L6.35003 2.44898L6.55512 2.48314ZM6.10475 2.8046L6.13957 2.59961L6.13809 2.59937L6.10475 2.8046ZM5.99965 2.79976L6.00097 3.00768L6.00161 3.00767L5.99965 2.79976ZM5.97584 2.79991V3.00783L5.97716 3.00783L5.97584 2.79991ZM1.59055 10.399L1.72134 10.5607L1.72528 10.5573L1.59055 10.399ZM1.58652 10.4022L1.45576 10.2406L1.45552 10.2407L1.58652 10.4022ZM1.56752 10.4167L1.45039 10.2449L1.42411 10.2629L1.40439 10.2878L1.56752 10.4167ZM10.3837 10.4167L10.5443 10.2846L10.5276 10.2644L10.5065 10.2489L10.3837 10.4167ZM10.3612 10.399L10.2264 10.5574L10.2309 10.5609L10.3612 10.399ZM10.8351 9.7738L10.6984 9.93049L10.7086 9.93934L10.7198 9.9468L10.8351 9.7738ZM10.8752 9.8041L10.7381 9.96036L10.7403 9.96227L10.8752 9.8041ZM7.15669 11.4109L7.36045 11.4523L7.41105 11.203H7.15669V11.4109ZM4.79259 11.4109V11.203H4.53823L4.58883 11.4523L4.79259 11.4109ZM9.62764 5.46266C8.30362 5.46266 7.22612 4.38523 7.22612 3.06124H6.81029C6.81029 4.61491 8.07399 5.87849 9.62764 5.87849V5.46266ZM12.0291 3.06124C12.0291 4.38524 10.9516 5.46266 9.62764 5.46266V5.87849C11.1813 5.87849 12.4449 4.6149 12.4449 3.06124H12.0291ZM9.62764 0.659729C10.9516 0.659729 12.0291 1.73723 12.0291 3.06124H12.4449C12.4449 1.50759 11.1813 0.243896 9.62764 0.243896V0.659729ZM7.22612 3.06124C7.22612 1.73724 8.30363 0.659729 9.62764 0.659729V0.243896C8.07398 0.243896 6.81029 1.50758 6.81029 3.06124H7.22612ZM9.62764 1.02671C8.50552 1.02671 7.59311 1.93912 7.59311 3.06124H8.00894C8.00894 2.16878 8.73518 1.44255 9.62764 1.44255V1.02671ZM11.6621 3.06124C11.6621 1.93913 10.7497 1.02671 9.62764 1.02671V1.44255C10.52 1.44255 11.2462 2.16878 11.2462 3.06124H11.6621ZM9.62764 5.09567C10.7497 5.09567 11.6621 4.18326 11.6621 3.06124H11.2462C11.2462 3.9536 10.52 4.67984 9.62764 4.67984V5.09567ZM7.59311 3.06124C7.59311 4.18327 8.50553 5.09567 9.62764 5.09567V4.67984C8.73517 4.67984 8.00894 3.9536 8.00894 3.06124H7.59311ZM7.92386 11.6188H10.2813V11.203H7.92386V11.6188ZM8.1396 11.4891C8.1396 11.4484 8.1355 11.4084 8.12763 11.3696L7.7201 11.4523C7.72249 11.464 7.72377 11.4763 7.72377 11.4891H8.1396ZM5.97464 13.6541C7.1682 13.6541 8.1396 12.6832 8.1396 11.4891H7.72377C7.72377 12.4535 6.93861 13.2382 5.97464 13.2382V13.6541ZM3.80967 11.4891C3.80967 12.6832 4.78118 13.6541 5.97464 13.6541V13.2382C5.01076 13.2382 4.22551 12.4535 4.22551 11.4891H3.80967ZM3.82165 11.3696C3.81378 11.4084 3.80967 11.4484 3.80967 11.4891H4.22551C4.22551 11.4763 4.22679 11.464 4.22917 11.4523L3.82165 11.3696ZM1.67034 11.6188H4.02541V11.203H1.67034V11.6188ZM0.549163 10.4977C0.549163 11.1161 1.05191 11.6188 1.67034 11.6188V11.203C1.28157 11.203 0.964997 10.8864 0.964997 10.4977H0.549163ZM0.941195 9.6456C0.692076 9.85895 0.549163 10.1697 0.549163 10.4977H0.964997C0.964997 10.2911 1.05487 10.0957 1.21168 9.96144L0.941195 9.6456ZM1.00525 9.59762C0.98325 9.61185 0.960997 9.62824 0.939437 9.64713L1.21344 9.95992C1.21806 9.95587 1.2239 9.95143 1.23115 9.94674L1.00525 9.59762ZM2.1148 7.12625C2.1148 8.08159 1.7025 8.98634 0.981492 9.61552L1.2549 9.92884C2.06609 9.22096 2.53063 8.20211 2.53063 7.12625H2.1148ZM2.1148 5.67022V7.12625H2.53063V5.67022H2.1148ZM5.97584 1.80918C3.84712 1.80918 2.1148 3.54099 2.1148 5.67022H2.53063C2.53063 3.77068 4.07675 2.22501 5.97584 2.22501V1.80918ZM6.26789 1.82777C6.1654 1.81041 6.05945 1.80918 5.97584 1.80918V2.22501C6.05927 2.22501 6.13393 2.22684 6.19847 2.23776L6.26789 1.82777ZM6.7602 2.51738C6.81466 2.19117 6.594 1.88195 6.26726 1.82766L6.1991 2.23787C6.29913 2.25449 6.36667 2.34929 6.35004 2.44889L6.7602 2.51738ZM6.06993 3.00958C6.39206 3.06429 6.70575 2.84433 6.76021 2.51729L6.35003 2.44898C6.33358 2.54775 6.23598 2.61599 6.13957 2.59962L6.06993 3.00958ZM6.00161 3.00767C6.03988 3.00731 6.05819 3.00767 6.07141 3.00982L6.13809 2.59937C6.08356 2.59051 6.0287 2.59156 5.99769 2.59186L6.00161 3.00767ZM5.97716 3.00783L6.00097 3.00767L5.99834 2.59185L5.97452 2.592L5.97716 3.00783ZM3.31345 5.67022C3.31345 4.20223 4.50838 3.00783 5.97584 3.00783V2.592C4.27877 2.592 2.89762 3.97252 2.89762 5.67022H3.31345ZM3.31345 7.12625V5.67022H2.89762V7.12625H3.31345ZM1.72528 10.5573C2.73382 9.69919 3.31345 8.44833 3.31345 7.12625H2.89762C2.89762 8.32597 2.37183 9.46121 1.45581 10.2406L1.72528 10.5573ZM1.71727 10.5639L1.7213 10.5606L1.45979 10.2373L1.45576 10.2406L1.71727 10.5639ZM1.68464 10.5885C1.69974 10.5782 1.71193 10.5682 1.71751 10.5637L1.45552 10.2407C1.44865 10.2463 1.44917 10.2458 1.45039 10.2449L1.68464 10.5885ZM1.74782 10.4977C1.74782 10.5168 1.73997 10.5338 1.73064 10.5456L1.40439 10.2878C1.36696 10.3352 1.33198 10.4065 1.33198 10.4977H1.74782ZM1.67034 10.4202C1.69401 10.4202 1.71321 10.4301 1.72555 10.4425C1.73788 10.4548 1.74782 10.474 1.74782 10.4977H1.33198C1.33198 10.6834 1.4846 10.836 1.67034 10.836V10.4202ZM10.2813 10.4202H1.67034V10.836H10.2813V10.4202ZM10.204 10.4977C10.204 10.474 10.2139 10.4548 10.2263 10.4424C10.2386 10.4301 10.2578 10.4202 10.2813 10.4202V10.836C10.4671 10.836 10.6198 10.6835 10.6198 10.4977H10.204ZM10.2231 10.5488C10.2182 10.5428 10.2132 10.535 10.2095 10.5254C10.2056 10.5154 10.204 10.5057 10.204 10.4977H10.6198C10.6198 10.4054 10.5844 10.3334 10.5443 10.2846L10.2231 10.5488ZM10.2309 10.5609C10.234 10.5634 10.2479 10.575 10.2609 10.5845L10.5065 10.2489C10.5061 10.2487 10.5051 10.248 10.5027 10.246C10.5015 10.245 10.5001 10.2439 10.4982 10.2423C10.4964 10.2409 10.4941 10.239 10.4916 10.237L10.2309 10.5609ZM8.63832 7.12625C8.63832 8.44831 9.21737 9.69861 10.2265 10.5573L10.496 10.2406C9.57939 9.46065 9.05416 8.32598 9.05416 7.12625H8.63832ZM8.63832 6.55748V7.12625H9.05416V6.55748H8.63832ZM9.23765 5.95816C8.90676 5.95816 8.63832 6.22659 8.63832 6.55748H9.05416C9.05416 6.45625 9.13642 6.37399 9.23765 6.37399V5.95816ZM9.83698 6.55748C9.83698 6.22659 9.56854 5.95816 9.23765 5.95816V6.37399C9.33888 6.37399 9.42114 6.45625 9.42114 6.55748H9.83698ZM9.83698 7.12625V6.55748H9.42114V7.12625H9.83698ZM10.9718 9.61711C10.2497 8.98734 9.83698 8.08211 9.83698 7.12625H9.42114C9.42114 8.20273 9.88621 9.22206 10.6984 9.93049L10.9718 9.61711ZM11.0124 9.64785C10.9908 9.6289 10.9693 9.61338 10.9504 9.60081L10.7198 9.9468C10.729 9.95296 10.7346 9.95731 10.7381 9.96035L11.0124 9.64785ZM11.4026 10.4977C11.4026 10.1697 11.2597 9.85882 11.0102 9.64592L10.7403 9.96227C10.8969 10.0959 10.9868 10.291 10.9868 10.4977H11.4026ZM10.2813 11.6188C10.8998 11.6188 11.4026 11.1161 11.4026 10.4977H10.9868C10.9868 10.8864 10.6702 11.203 10.2813 11.203V11.6188ZM7.15669 11.203H4.79259V11.6188H7.15669V11.203ZM7.35678 11.4891C7.35678 11.4763 7.35807 11.464 7.36045 11.4523L6.95293 11.3696C6.94505 11.4084 6.94095 11.4484 6.94095 11.4891H7.35678ZM5.97464 12.8713C6.73653 12.8713 7.35678 12.2517 7.35678 11.4891H6.94095C6.94095 12.0219 6.507 12.4554 5.97464 12.4554V12.8713ZM4.59249 11.4891C4.59249 12.2517 5.21275 12.8713 5.97464 12.8713V12.4554C5.44228 12.4554 5.00833 12.0219 5.00833 11.4891H4.59249ZM4.58883 11.4523C4.59121 11.464 4.59249 11.4763 4.59249 11.4891H5.00833C5.00833 11.4484 5.00423 11.4084 4.99635 11.3696L4.58883 11.4523Z" fill="#1943EF" mask="url(#path-1-outside-1_0_992)"/>
</svg>
