<svg width="13" height="13" viewBox="0 0 13 13" fill="none" xmlns="http://www.w3.org/2000/svg">
<path opacity="0.4" fill-rule="evenodd" clip-rule="evenodd" d="M1.70825 5.83732C1.70825 3.66833 3.46657 1.91001 5.63557 1.91001C7.80457 1.91001 9.56288 3.66833 9.56288 5.83732C9.56288 6.89246 9.14678 7.85042 8.46972 8.55604C8.44857 8.57275 8.42817 8.59087 8.40864 8.61039C8.38912 8.62992 8.371 8.65032 8.35429 8.67147C7.64866 9.34853 6.69071 9.76464 5.63557 9.76464C3.46657 9.76464 1.70825 8.00632 1.70825 5.83732ZM8.87076 10.0526C7.97478 10.7413 6.85299 11.1507 5.63557 11.1507C2.70105 11.1507 0.322144 8.77184 0.322144 5.83732C0.322144 2.9028 2.70105 0.523895 5.63557 0.523895C8.57009 0.523895 10.949 2.9028 10.949 5.83732C10.949 7.05474 10.5396 8.17653 9.85089 9.07251L11.9011 11.1227C12.1718 11.3934 12.1718 11.8322 11.9011 12.1028C11.6304 12.3735 11.1916 12.3735 10.921 12.1028L8.87076 10.0526Z" fill="#1616B3"/>
</svg>
