<svg width="17" height="17" viewBox="0 0 17 17" fill="none" xmlns="http://www.w3.org/2000/svg">
<g opacity="0.4">
<path d="M13.7026 9.09122C13.737 8.88866 13.737 8.65206 13.737 8.41549C13.737 8.17892 13.7026 7.97633 13.7026 7.73976L15.1537 6.62488C15.2921 6.52358 15.3265 6.35468 15.2229 6.18572L13.8406 3.85432C13.7714 3.71904 13.5642 3.65176 13.4258 3.71904L11.698 4.39481C11.3524 4.12458 10.938 3.88798 10.5233 3.71904L10.2813 1.92846C10.2469 1.79351 10.1085 1.65823 9.93569 1.65823H7.17112C6.99835 1.65823 6.85999 1.79351 6.82555 1.92846L6.54916 3.71904C6.13439 3.88798 5.75439 4.12455 5.37407 4.39481L3.64622 3.71904C3.47342 3.65176 3.30062 3.71904 3.23146 3.85432L1.84917 6.18575C1.78033 6.32067 1.8147 6.52358 1.91833 6.62491L3.40432 7.73976C3.40432 7.97633 3.36988 8.17892 3.36988 8.41549C3.36988 8.65206 3.40432 8.85465 3.40432 9.09122L1.95319 10.2061C1.8148 10.3074 1.78042 10.4763 1.88399 10.6453L3.26628 12.9767C3.33548 13.1119 3.54268 13.1792 3.68104 13.1119L5.40893 12.4362C5.75449 12.7064 6.16893 12.943 6.58366 13.1119L6.86006 14.9025C6.89478 15.0715 7.03282 15.1727 7.20562 15.1727H9.9702C10.143 15.1727 10.2814 15.0375 10.3158 14.9025L10.5925 13.1119C11.007 12.943 11.3873 12.7064 11.7672 12.4362L13.4951 13.1119C13.6679 13.1792 13.8407 13.1119 13.9099 12.9767L15.2922 10.6452C15.3613 10.5103 15.3266 10.3074 15.223 10.2061L13.7026 9.09122ZM8.55344 10.7805C7.20559 10.7805 6.13446 9.73333 6.13446 8.41549C6.13446 7.09766 7.20559 6.05044 8.55344 6.05044C9.90129 6.05044 10.9725 7.09766 10.9725 8.41549C10.9725 9.73333 9.90129 10.7805 8.55344 10.7805Z" fill="#1616B3"/>
</g>
</svg>
