<svg width="15" height="12" viewBox="0 0 15 12" fill="none" xmlns="http://www.w3.org/2000/svg">
<path d="M4.43026 5.62749C4.3136 5.40875 4.08028 5.27751 3.83238 5.27751H3.0595C3.24908 3.16305 5.01356 1.50064 7.17177 1.50064C7.87173 1.50064 8.55711 1.67563 9.16957 2.02561C9.49039 2.21518 9.8987 2.09852 10.0883 1.76313C10.2778 1.44231 10.1612 1.034 9.82578 0.84443C9.02375 0.392373 8.10505 0.14447 7.17177 0.14447C4.26985 0.14447 1.90749 2.41934 1.7325 5.26293H0.915877C0.667975 5.26293 0.434655 5.39417 0.317995 5.61291C0.201335 5.83164 0.215918 6.09413 0.34716 6.29828L1.80541 8.54399C1.93665 8.73356 2.14081 8.85022 2.37413 8.85022C2.60745 8.85022 2.8116 8.73356 2.94284 8.54399L4.40109 6.29828C4.54692 6.10871 4.54692 5.83164 4.43026 5.62749Z" fill="#1943EF"/>
<path d="M13.9977 4.91309L12.5394 2.66738C12.2915 2.28824 11.6645 2.28824 11.4166 2.66738L9.94375 4.91309C9.81251 5.11724 9.79792 5.37973 9.91459 5.59847C10.0312 5.8172 10.2646 5.94845 10.5125 5.94845H11.2853C11.0958 8.06291 9.33128 9.72531 7.17308 9.72531C6.4877 9.72531 5.78774 9.55032 5.17527 9.20034C4.85446 9.02535 4.44615 9.14201 4.25658 9.46283C4.08159 9.78364 4.19825 10.192 4.51906 10.3815C5.33568 10.8336 6.2398 11.0669 7.17308 11.0669C10.075 11.0669 12.4374 8.79203 12.6269 5.94845H13.429C13.6769 5.94845 13.9102 5.8172 14.0268 5.59847C14.1289 5.37973 14.1289 5.11724 13.9977 4.91309Z" fill="#1943EF"/>
</svg>
