<svg width="14" height="14" viewBox="0 0 14 14" fill="none" xmlns="http://www.w3.org/2000/svg">
<path opacity="0.6" d="M6.82039 0.959473C3.36487 0.959473 0.582886 3.77074 0.582886 7.19697C0.582886 10.6525 3.39415 13.4345 6.82039 13.4345C10.2759 13.4345 13.0579 10.6232 13.0579 7.19697C13.0579 3.74146 10.2759 0.959473 6.82039 0.959473ZM9.60237 6.58201L6.99609 9.18829C6.82038 9.36399 6.55683 9.48113 6.32256 9.48113C6.08828 9.48113 5.82473 9.39327 5.64902 9.18829L4.0384 7.57766C3.65771 7.19697 3.65771 6.58201 4.0384 6.20131C4.41909 5.82062 5.03406 5.82062 5.41475 6.20131L6.35184 7.1384L8.2553 5.23494C8.636 4.85425 9.25096 4.85425 9.63165 5.23494C9.98306 5.58635 9.98306 6.20132 9.60237 6.58201Z" fill="#1616B3"/>
</svg>
